<svg xmlns="http://www.w3.org/2000/svg" width="1200" height="630" viewBox="0 0 1200 630">
  <rect width="1200" height="630" fill="#f8fafc"/>
  <rect x="0" y="0" width="1200" height="72" fill="#ffffff"/>
  <text x="24" y="45" font-family="Segoe UI, Arial" font-size="34" font-weight="700" fill="#0f172a">Panel de Administración · Dashboard</text>
  <rect x="24" y="96" width="270" height="90" rx="12" fill="#ecfdf5" stroke="#86efac"/>
  <text x="44" y="132" font-family="Segoe UI, Arial" font-size="24" fill="#166534">Encuestas Completadas</text>
  <text x="44" y="168" font-family="Segoe UI, Arial" font-size="36" font-weight="700" fill="#14532d">14</text>
  <rect x="312" y="96" width="270" height="90" rx="12" fill="#eff6ff" stroke="#93c5fd"/>
  <text x="332" y="132" font-family="Segoe UI, Arial" font-size="24" fill="#1d4ed8">Índice de Felicidad</text>
  <text x="332" y="168" font-family="Segoe UI, Arial" font-size="36" font-weight="700" fill="#1e3a8a">Alta</text>
  <rect x="600" y="96" width="270" height="90" rx="12" fill="#faf5ff" stroke="#d8b4fe"/>
  <text x="620" y="132" font-family="Segoe UI, Arial" font-size="24" fill="#7e22ce">Sentimiento</text>
  <text x="620" y="168" font-family="Segoe UI, Arial" font-size="36" font-weight="700" fill="#6b21a8">1.0</text>
  <rect x="24" y="212" width="370" height="190" rx="12" fill="#ffffff" stroke="#cbd5e1"/>
  <text x="42" y="248" font-family="Segoe UI, Arial" font-size="30" font-weight="700" fill="#0f172a">Salas más visitadas</text>
  <text x="42" y="288" font-family="Segoe UI, Arial" font-size="25" fill="#334155">• Acuario: 12</text>
  <text x="42" y="324" font-family="Segoe UI, Arial" font-size="25" fill="#334155">• Planetario: 11</text>
  <text x="42" y="360" font-family="Segoe UI, Arial" font-size="25" fill="#334155">• Proyección 3D: 7</text>
  <rect x="414" y="212" width="370" height="190" rx="12" fill="#ffffff" stroke="#cbd5e1"/>
  <text x="432" y="248" font-family="Segoe UI, Arial" font-size="30" font-weight="700" fill="#0f172a">Salas menos visitadas</text>
  <text x="432" y="288" font-family="Segoe UI, Arial" font-size="25" fill="#334155">• Museo Tierra: 1</text>
  <text x="432" y="324" font-family="Segoe UI, Arial" font-size="25" fill="#334155">• Lab. Química: 6</text>
  <text x="432" y="360" font-family="Segoe UI, Arial" font-size="25" fill="#334155">• Sala Robots: 7</text>
  <rect x="804" y="212" width="370" height="190" rx="12" fill="#ffffff" stroke="#cbd5e1"/>
  <text x="822" y="248" font-family="Segoe UI, Arial" font-size="30" font-weight="700" fill="#0f172a">Prioridad de mejora</text>
  <text x="822" y="288" font-family="Segoe UI, Arial" font-size="25" fill="#334155">• Lab. Química: 11</text>
  <text x="822" y="324" font-family="Segoe UI, Arial" font-size="25" fill="#334155">• Proyección 3D: 8</text>
  <text x="822" y="360" font-family="Segoe UI, Arial" font-size="25" fill="#334155">• Planetario: 7</text>
  <rect x="24" y="426" width="1150" height="170" rx="12" fill="#ffffff" stroke="#cbd5e1"/>
  <text x="42" y="468" font-family="Segoe UI, Arial" font-size="30" font-weight="700" fill="#0f172a">Resumen IA para priorización</text>
  <text x="42" y="510" font-family="Segoe UI, Arial" font-size="24" fill="#334155">Convierte datos operativos en decisiones accionables para mantenimiento y experiencia.</text>
</svg>